<?xml version="1.0" standalone="no"?>
<!DOCTYPE svg PUBLIC "-//W3C//DTD SVG 20010904//EN"
 "http://www.w3.org/TR/2001/REC-SVG-20010904/DTD/svg10.dtd">
<svg version="1.0" xmlns="http://www.w3.org/2000/svg"
 width="192.000000pt" height="192.000000pt" viewBox="0 0 192.000000 192.000000"
 preserveAspectRatio="xMidYMid meet">
<metadata>
Created by potrace 1.14, written by Peter Selinger 2001-2017
</metadata>
<g transform="translate(0.000000,192.000000) scale(0.100000,-0.100000)"
fill="#000000" stroke="none">
<path d="M923 1473 c-22 -27 -88 -114 -146 -194 -59 -81 -126 -168 -150 -195
l-44 -48 -13 24 c-7 13 -41 104 -77 204 -79 222 -87 236 -129 236 -48 0 -60
-19 -67 -103 -8 -87 -31 -199 -82 -386 -54 -197 -60 -237 -40 -267 18 -28 55
-32 77 -6 8 9 18 38 21 64 8 58 95 456 105 482 7 15 16 -2 42 -75 94 -265 106
-287 157 -274 37 9 79 55 223 245 68 88 127 163 133 167 7 4 8 -13 3 -53 -42
-356 -50 -530 -27 -557 8 -10 28 -17 47 -17 48 0 60 32 46 120 -12 73 -5 179
30 464 l22 179 -23 18 c-38 31 -65 24 -108 -28z"/>
<path d="M1312 1345 c-99 -22 -163 -43 -207 -68 -32 -18 -40 -28 -40 -52 0
-24 5 -30 33 -37 27 -7 32 -13 32 -37 0 -47 -38 -317 -61 -437 -19 -97 -20
-114 -8 -140 11 -21 22 -30 45 -32 50 -5 64 18 64 102 0 98 62 542 80 577 18
33 203 67 269 49 82 -22 78 -84 -9 -172 -41 -41 -83 -69 -145 -99 -79 -38 -86
-43 -83 -68 3 -22 8 -26 41 -29 21 -2 58 3 82 11 112 39 211 -55 161 -151 -44
-83 -163 -152 -263 -152 -55 0 -64 -3 -82 -26 -25 -32 -26 -38 -4 -59 23 -24
160 -16 223 12 110 49 214 154 240 241 23 76 -19 161 -102 203 l-39 20 64 69
c69 73 93 122 83 174 -7 36 -57 89 -99 105 -39 15 -199 12 -275 -4z"/>
</g>
</svg>
